<svg xmlns="http://www.w3.org/2000/svg" width="608" height="32" viewBox="0 0 608 32">
  <metadata><?xpacket begin="﻿" id="W5M0MpCehiHzreSzNTczkc9d"?>
<x:xmpmeta xmlns:x="adobe:ns:meta/" x:xmptk="Adobe XMP Core 5.6-c140 79.160451, 2017/05/06-01:08:21        ">
   <rdf:RDF xmlns:rdf="http://www.w3.org/1999/02/22-rdf-syntax-ns#">
      <rdf:Description rdf:about=""/>
   </rdf:RDF>
</x:xmpmeta>
                                                                                                    
                                                                                                    
                                                                                                    
                                                                                                    
                                                                                                    
                                                                                                    
                                                                                                    
                                                                                                    
                                                                                                    
                                                                                                    
                                                                                                    
                                                                                                    
                                                                                                    
                                                                                                    
                                                                                                    
                                                                                                    
                                                                                                    
                                                                                                    
                                                                                                    
                                                                                                    
                           
<?xpacket end="w"?></metadata>
<defs>
    <style>
      .cls-1, .cls-2 {
        fill: #465466;
        fill-rule: evenodd;
      }

      .cls-2 {
        opacity: 0.4;
      }
    </style>
  </defs>
  <path id="全屏" class="cls-1" d="M535,25h-2V24h1a2.3,2.3,0,0,0,1.556-.385L529.022,18,530,17.5l5.969,5.13A5.929,5.929,0,0,0,536,22V21h1v4h-2Zm1-15a5.441,5.441,0,0,0-.147-1.126L530,14.692,529.252,14l5.913-5.879A4.028,4.028,0,0,0,534,8h-1V7h4v4h-1V10ZM520.7,8.163L526.662,14,526,14.752l-5.921-5.794A5.138,5.138,0,0,0,520,10v1h-1V7h4V8h-1A3.629,3.629,0,0,0,520.7,8.163ZM520,22a4.349,4.349,0,0,0,.085.967L526,17l0.438,1L520.7,23.79A3.021,3.021,0,0,0,522,24h1v1h-4V21h1v1Z"/>
  <path id="退出全屏" class="cls-1" d="M564.008,18h4.011v1.067h-3.007a2.212,2.212,0,0,0-1.563.41l5.56,4.989-0.853.451-5.121-4.386c-0.02.2-.031,0.419-0.031,0.669l0,2.8h-1V20.133C562,18.622,562.4,18,564.008,18Zm-0.976-7.122a5.688,5.688,0,0,0,.152,1.172L568.226,7,569,7.716l-5.1,5.117a4.087,4.087,0,0,0,1.2.127L568,13v1h-3.936C561.683,14,562,12.285,562,11.919V8h1Zm-7.8,1.922-4.234-5.026L551.686,7l4.187,4.981a5.291,5.291,0,0,0,.082-1.076L556,8h1v3.936c0,0.8.152,2.064-2.09,2.064H551V13l2.865-.032A3.849,3.849,0,0,0,555.228,12.8Zm0.831,8.2a4.578,4.578,0,0,0-.08-0.967L551.412,25,551,24l4.4-4.789a2.7,2.7,0,0,0-1.227-.21H551V18h4.118c1.593,0,1.882.2,1.882,2v4h-0.941V21Z"/>
  <path id="形状_110" data-name="形状 110" class="cls-1" d="M357.679,9.03a0.5,0.5,0,0,0-.65.279l-2,5a0.5,0.5,0,0,0,.465.686h1.262l-1.727,4.316a0.5,0.5,0,0,0,.465.686h2a0.5,0.5,0,1,0,0-1h-1.262l1.727-4.316A0.5,0.5,0,0,0,357.493,14h-1.262l1.727-4.315A0.5,0.5,0,0,0,357.679,9.03ZM357.493,22h-2a0.5,0.5,0,0,0,0,1h2A0.5,0.5,0,1,0,357.493,22Zm10-10a0.5,0.5,0,0,0,0-1H364V9.5a0.5,0.5,0,1,0-1,0V11h-3.5a0.5,0.5,0,0,0,0,1H363v4h-3.5a0.5,0.5,0,0,0,0,1h8a0.5,0.5,0,0,0,0-1H364V12h3.5Zm-1,6h-6a0.5,0.5,0,0,0-.5.5v4a0.5,0.5,0,0,0,.5.5h6a0.5,0.5,0,0,0,.5-0.5v-4A0.5,0.5,0,0,0,366.5,18ZM366,22h-5V19h5v3Zm4.5-12h1a0.5,0.5,0,0,0,0-1h-1A0.5,0.5,0,0,0,370.5,10Zm2,12H372V12.5a0.5,0.5,0,0,0-.5-0.5h-1a0.5,0.5,0,0,0,0,1H371v9.5a0.5,0.5,0,0,0,.5.5h1A0.5,0.5,0,1,0,372.5,22Zm9-6H381V12.5a0.5,0.5,0,0,0-.5-0.5H377V10h4.5a0.5,0.5,0,0,0,0-1h-8a0.5,0.5,0,0,0,0,1H376v2h-2.5a0.5,0.5,0,0,0,0,1H376v3h-2.5a0.5,0.5,0,0,0,0,1h8A0.5,0.5,0,0,0,381.5,16ZM377,13h3v3h-3V13Zm3.5,5h-6a0.5,0.5,0,0,0-.5.5v4a0.5,0.5,0,0,0,.5.5h6a0.5,0.5,0,0,0,.5-0.5v-4A0.5,0.5,0,0,0,380.5,18ZM380,22h-5V19h5v3Z"/>
  <path id="清除样式_" data-name="清除样式 " class="cls-1" d="M410.834,13.6L401.566,22h-6.057l-3.322-3.677a1,1,0,0,1,.071-1.413L404.13,6.184a1,1,0,0,1,1.412.071l5.364,5.936A1,1,0,0,1,410.834,13.6Zm-12.9-.428-4.262,3.807a1,1,0,0,0-.071,1.412l2.4,2.659,4.982,0.124,2.655-2.371Zm11.561-1.055-4.022-4.453a1,1,0,0,0-1.413-.071l-5.379,4.911,5.705,5.63,5.038-4.606A1,1,0,0,0,409.493,12.12ZM407,26H390V25h17v1Z"/>
  <path id="形状_75" data-name="形状 75" class="cls-1" d="M439,8a1,1,0,0,1,1,1V23a1,1,0,0,1-1,1H426a1,1,0,0,1-1-1V9a1,1,0,0,1,1-1h13m0-1H426a2,2,0,0,0-2,2V23a2,2,0,0,0,2,2h13a2,2,0,0,0,2-2V9a2,2,0,0,0-2-2h0Z"/>
  <path id="形状_76" data-name="形状 76" class="cls-2" d="M427,21V19h11v2H427Zm0-6h11v2H427V15Zm0-4h11v2H427V11Z"/>
  <path id="撤消" class="cls-1" d="M473,25h-6V24h5a1,1,0,0,0,1-1V11a1,1,0,0,0-1-1H458v2h-1V11h-1V10h-1V9h1V8h1V7h1V9h15a1,1,0,0,1,1,1V24A1,1,0,0,1,473,25Z"/>
  <path id="撤消_拷贝" data-name="撤消 拷贝" class="cls-1" d="M488,25h6V24h-5a1,1,0,0,1-1-1V11a1,1,0,0,1,1-1h14v2h1V11h1V10h1V9h-1V8h-1V7h-1V9H488a1,1,0,0,0-1,1V24A1,1,0,0,0,488,25Z"/>
  <path id="形状_95" data-name="形状 95" class="cls-1" d="M231.5,23a0.5,0.5,0,0,1-.5-0.5V9.521a0.5,0.5,0,0,1,1,0V22.5A0.5,0.5,0,0,1,231.5,23Zm10,0a0.5,0.5,0,0,1-.5-0.5V9.521a0.5,0.5,0,0,1,1,0V22.5A0.5,0.5,0,0,1,241.5,23Zm0-6.989h-10a0.5,0.5,0,1,1,0-1h10A0.5,0.5,0,1,1,241.5,16.011Zm5,6.989a0.5,0.5,0,0,1-.5-0.5V10.329l-1.276.637a0.5,0.5,0,0,1-.448-0.893l2-1a0.5,0.5,0,0,1,.724.447V22.5A0.5,0.5,0,0,1,246.5,23Zm2,0h-4a0.5,0.5,0,1,1,0-1h4A0.5,0.5,0,1,1,248.5,23Z"/>
  <path id="形状_94" data-name="形状 94" class="cls-1" d="M262.5,23a0.5,0.5,0,0,1-.5-0.5V9.5a0.5,0.5,0,0,1,1,0v13A0.5,0.5,0,0,1,262.5,23Zm10,0a0.5,0.5,0,0,1-.5-0.5V9.5a0.5,0.5,0,0,1,1,0v13A0.5,0.5,0,0,1,272.5,23Zm0-7h-10a0.5,0.5,0,0,1,0-1h10A0.5,0.5,0,0,1,272.5,16Zm9,7h-6a0.5,0.5,0,0,1-.5-0.5V21.662a4.88,4.88,0,0,1,3.342-4.636A3.883,3.883,0,0,0,281,13.338V12.5a2.5,2.5,0,0,0-5,0,0.5,0.5,0,0,1-1,0,3.5,3.5,0,1,1,7,0v0.838a4.88,4.88,0,0,1-3.342,4.636A3.883,3.883,0,0,0,276,21.662V22h5.5A0.5,0.5,0,0,1,281.5,23Z"/>
  <path id="形状_13" data-name="形状 13" class="cls-1" d="M312.5,10h-13a0.5,0.5,0,0,1,0-1h13A0.5,0.5,0,0,1,312.5,10Zm0,6h-13a0.5,0.5,0,0,1,0-1h13A0.5,0.5,0,0,1,312.5,16Zm0,6h-13a0.5,0.5,0,0,1,0-1h13A0.5,0.5,0,0,1,312.5,22Zm-16-11A1.5,1.5,0,1,1,298,9.5,1.5,1.5,0,0,1,296.5,11Zm0-2a0.5,0.5,0,1,0,.5.5A0.5,0.5,0,0,0,296.5,9Zm0,8a1.5,1.5,0,1,1,1.5-1.5A1.5,1.5,0,0,1,296.5,17Zm0-2a0.5,0.5,0,1,0,.5.5A0.5,0.5,0,0,0,296.5,15Zm0,8a1.5,1.5,0,1,1,1.5-1.5A1.5,1.5,0,0,1,296.5,23Zm0-2a0.5,0.5,0,1,0,.5.5A0.5,0.5,0,0,0,296.5,21Z"/>
  <path id="形状_112" data-name="形状 112" class="cls-1" d="M325.529,13a0.5,0.5,0,0,0,0-1h-0.5V9.5a0.5,0.5,0,1,0-1,0V12h-0.5a0.5,0.5,0,0,0,0,1h0.5v5.691l-0.72.362a0.5,0.5,0,0,0-.222.671,0.5,0.5,0,0,0,.667.224l0.275-.138V22h-0.5a0.5,0.5,0,0,0,0,1h1a0.5,0.5,0,0,0,.5-0.5V19.309l0.72-.362a0.5,0.5,0,0,0-.445-0.895l-0.275.138V13h0.5Zm9.953-2a0.5,0.5,0,0,0,0-1H332V9.5a0.5,0.5,0,1,0-1,0V10H327.52a0.5,0.5,0,0,0,0,1h1.493v2H327.52a0.5,0.5,0,0,0-.5.5v9a0.5,0.5,0,1,0,1,0V14h6.967v8.5a0.5,0.5,0,1,0,1,0v-9a0.5,0.5,0,0,0-.5-0.5h-1.493V11h1.493Zm-2.488,2h-2.986V11h2.986v2Zm0.5,4a0.5,0.5,0,0,0,0-1H332V15a0.5,0.5,0,1,0-1,0v1h-1.492a0.5,0.5,0,0,0,0,1H331v1h-1.492a0.5,0.5,0,0,0-.5.5v3a0.5,0.5,0,0,0,.5.5h3.981a0.5,0.5,0,0,0,.5-0.5v-3a0.5,0.5,0,0,0-.5-0.5H332V17h1.493Zm-0.5,4h-2.986V19h2.986v2Zm15.427-10h-2.488V10h2.488a0.5,0.5,0,0,0,0-1h-9.953a0.5,0.5,0,0,0,0,1h2.488v1h-2.488a0.5,0.5,0,0,0-.5.5v4a0.5,0.5,0,0,0,.5.5h2.488v1h-2.488a0.5,0.5,0,0,0,0,1h1.785l-1.141,1.146a0.5,0.5,0,0,0,.194.828l3.134,1.05L341.274,22h-2.806a0.5,0.5,0,0,0,0,1h2.986a0.5,0.5,0,0,0,.319-0.116l1.778-1.489,4.713,1.578a0.489,0.489,0,0,0,.157.026,0.5,0.5,0,0,0,.158-0.974l-4.129-1.383L347.607,18h0.814a0.5,0.5,0,0,0,0-1h-6.469V16h6.469a0.5,0.5,0,0,0,.5-0.5v-4A0.5,0.5,0,0,0,348.421,11Zm-5.082,9.271-2.954-.989L341.66,18h4.391ZM341.952,10h2.986v1h-2.986V10Zm0,2h2.986v3h-2.986V12Zm-2.986,0h1.99v3h-1.99V12Zm8.957,3h-1.99V12h1.99v3Z"/>
  <path id="形状_68" data-name="形状 68" class="cls-1" d="M183,10h-2.051a4.475,4.475,0,0,0-8.9,0H170a2,2,0,0,0-2,2V24a2,2,0,0,0,2,2h13a2,2,0,0,0,2-2V12A2,2,0,0,0,183,10Zm-6.5-3a3.5,3.5,0,0,1,3.45,3h-6.9A3.5,3.5,0,0,1,176.5,7ZM184,24a1,1,0,0,1-1,1H170a1,1,0,0,1-1-1V12a1,1,0,0,1,1-1h2v2.5a0.5,0.5,0,0,0,1,0V11h7v2.5a0.5,0.5,0,0,0,1,0V11h2a1,1,0,0,1,1,1V24Z"/>
  <path id="加粗" class="cls-1" d="M216,19.5c0,2.485-2.015,5.5-4.5,5.5H201a1,1,0,0,1-1-1V9a1,1,0,0,1,1-1h9.5a4.493,4.493,0,0,1,3.236,7.617A4.48,4.48,0,0,1,216,19.5ZM210.5,10H202v5h8.5A2.5,2.5,0,0,0,210.5,10Zm1,7H202v6h9.5c1.381,0,2.5-2.119,2.5-3.5A2.5,2.5,0,0,0,211.5,17Z"/>
  <path id="插入视频" class="cls-1" d="M57,25H39a1,1,0,0,1-1-1V8a1,1,0,0,1,1-1H57a1,1,0,0,1,1,1V24A1,1,0,0,1,57,25ZM57,9a1,1,0,0,0-1-1H40a1,1,0,0,0-1,1V23a1,1,0,0,0,1,1H56a1,1,0,0,0,1-1V9Zm-8,8H48v1H47V13h1v1h1v1h1v1H49v1Zm-3-5h1v7H46V12Z"/>
  <path id="形状_67" data-name="形状 67" class="cls-1" d="M88,13H87v1h1a1,1,0,0,1,1,1v7a1,1,0,0,1-1,1H77a1,1,0,0,1-1-1V15a1,1,0,0,1,1-1h5V13H77a2.006,2.006,0,0,0-2,2v7a2.006,2.006,0,0,0,2,2H88a2.006,2.006,0,0,0,2-2V15A2.006,2.006,0,0,0,88,13Zm-3,0H84v1h1V13ZM83,8H72a2.006,2.006,0,0,0-2,2v7a2.006,2.006,0,0,0,2,2h1V18H72a1,1,0,0,1-1-1V10a1,1,0,0,1,1-1H83a1,1,0,0,1,1,1v7a1,1,0,0,1-1,1H78v1h5a2.006,2.006,0,0,0,2-2V10A2.006,2.006,0,0,0,83,8ZM75,18v1h1V18H75Z"/>
  <path id="插入音乐" class="cls-1" d="M109,10l13-4V7l-13,4V10Zm0,0h1V22h-1V10Zm12-4h1V18h-1V6ZM105.9,20.061A3.28,3.28,0,0,1,109.93,22.3a3.542,3.542,0,0,1-6.859,1.4A3.279,3.279,0,0,1,105.9,20.061Zm0.2,0.98A2.294,2.294,0,0,1,108.95,22.5a2.563,2.563,0,0,1-4.9,1A2.293,2.293,0,0,1,106.1,21.04Zm11.8-4.98a3.279,3.279,0,0,1,4.03,2.238,3.542,3.542,0,0,1-6.858,1.4A3.279,3.279,0,0,1,117.9,16.061Zm0.2,0.98a2.291,2.291,0,0,1,2.85,1.458,2.562,2.562,0,0,1-4.9,1A2.292,2.292,0,0,1,118.1,17.041Z"/>
  <path id="插入股票" class="cls-1" d="M142,13h1V23h-1V13Zm4-7h1V23h-1V6Zm4,4h1V23h-1V10ZM135,25h19v1H135V25Zm3-15h1V23h-1V10Z"/>
  <path id="形状_80" data-name="形状 80" class="cls-1" d="M24.5,7H7.5A1.5,1.5,0,0,0,6,8.5v15A1.5,1.5,0,0,0,7.5,25h17A1.5,1.5,0,0,0,26,23.5V8.5A1.5,1.5,0,0,0,24.5,7ZM7.5,8h17a0.5,0.5,0,0,1,.5.5V19.13c-3.427,1.1-6.207,1.083-8.255-.066a11.193,11.193,0,0,1-2.05-1.589,9.039,9.039,0,0,0-4.071-2.459A8.76,8.76,0,0,0,7,14.907V8.5A0.5,0.5,0,0,1,7.5,8Zm17,16H7.5A0.5,0.5,0,0,1,7,23.5V15.92a7.85,7.85,0,0,1,3.377.064,8.114,8.114,0,0,1,3.646,2.23,12.119,12.119,0,0,0,2.233,1.721,8.427,8.427,0,0,0,4.187,1.007A15.855,15.855,0,0,0,25,20.173V23.5A0.5,0.5,0,0,1,24.5,24ZM21,12H20v1h1V12Z"/>
  <path id="书籍" class="cls-1" d="M592.5,24.976a3.3,3.3,0,0,1-2.2-.834h-6.8a1.508,1.508,0,0,1-1.5-1.513V8.507a1.508,1.508,0,0,1,1.5-1.513h5a4.5,4.5,0,0,1,4,2.461,4.5,4.5,0,0,1,4-2.461h5A1.508,1.508,0,0,1,603,8.507V22.629a1.508,1.508,0,0,1-1.5,1.513h-6.8A3.3,3.3,0,0,1,592.5,24.976ZM583.5,8a0.5,0.5,0,0,0-.5.5V22.629a0.5,0.5,0,0,0,.5.5h7a0.5,0.5,0,0,1,.354.148,2.315,2.315,0,0,0,3.292,0,0.5,0.5,0,0,1,.354-0.148h7a0.5,0.5,0,0,0,.5-0.5V8.507a0.5,0.5,0,0,0-.5-0.5h-5a3.519,3.519,0,0,0-3.5,3.531v9.079a0.5,0.5,0,1,1-1,0V11.533A3.519,3.519,0,0,0,588.5,8h-5Z"/>
</svg>
